<svg xmlns="http://www.w3.org/2000/svg" viewBox="15 169 582 454"><path fill="#616161" d="M446.2 309c4-3.9 7.5-8.5 11.6-12.2 10.6-9.3 27.2-15 45.9-11.8 23.3 4 56 41.6.7 71.4-22.2 12-59.9 2.8-71.3 15.3-18.8 20.6-14.4 35.3-55 42.6-23.8 4.3-34 13.5-39.4 23.6-3.2 6-5.1 12.8-8.9 18.4-4.5 6.4-11.4 7.9-16.3 3.4s-5.7-12.2-5.3-20.1c.3-6.9 1.3-14.5 4.9-20.4 5.2-8.4 13.3-13.4 21.1-17.3 5.4-2.7 10.8-5.1 16.2-7.3 5.2-2 13.9-3.9 16.6-10.6 2.9-7.6-.2-16.1 1.4-24.1 1.5-7.5 7-13.2 12.5-17 22.6-15.9 40.8-9.6 65.3-33.9z"/><path d="M273 499h.9v58.4h-.9zm87.9 0h.9v58.4h-.9z"/><path d="M264.7 498.5h105.4v.9H264.7z"/><path fill="#FF5722" d="M299.2 463.1s-10.2-6.3-1.1-18.4c0 0-1.1 6.7 3.7 5 4.8-1.6-1.1-10.6 1.3-15.6 2.5-5 5.7-6.3 5.7-6.3s-1.5 5.9 2.2 5.1c3.7-.8 2-10 9.9-12.9 7.6-2.8 5.7-8.7 5.7-8.7s7.5 4.5 4 13.9c-3.5 9.3 3.6 9.9 6 6.9 0 0 .9 6.3-3.1 8.5-4.1 2.2-3.1 8.3 1.6 7.4 3.5-.7 4.3-4.7 4.3-4.7s8.2 12-3.3 19.8h-36.9z"/><path fill="#F4B400" d="M309.7 462.9s-6.3-4.5-3.1-10.8c0 0 2.3 3.2 3.9-.6 1.6-3.8-2.2-6.7 2.2-10.9 0 0 1 2.7 4 0s-.6-9 6.5-11.3c0 0-2.7 4.4 0 6.1 2.7 1.7 3.5 5.1 2.3 7.3-1.2 2.2-1.7 7 .2 6.6 1.8-.4 2-2.5 2-2.5s2.5 3.5.6 6.1c-1.8 2.6.7 4.5 3 3.2 0 0-.5 4.7-5.3 6.7l-16.3.1z"/><path d="M344.4 495.5h-53.9v-30.7c0-1.5 1.2-2.7 2.7-2.7h48.5c1.5 0 2.7 1.2 2.7 2.7v30.7z"/><path fill="#FF5722" d="M293.8 465.5h47.3v26.6h-47.3z"/><path d="M345.8 499H289c-1.3 0-2.3-1-2.3-2.3v-.7c0-.3.2-.4.4-.4h60.6c.3 0 .4.2.4.4v.7c.1 1.2-1 2.3-2.3 2.3z"/><path fill="#FFF" d="M324.4 485.5h-14c-.1 0-.3-.1-.3-.2-.1-.1-.1-.3 0-.3l7.1-12.6c0-.1.2-.2.3-.2.1 0 .3.1.3.2l7 12.6v.3c-.1.1-.2.2-.4.2zm-13.4-.8h12.8l-6.4-11.5-6.4 11.5z"/><path fill="#FFF" d="M317 477.4h.7v3.5h-.7z"/><circle fill="#FFF" cx="317.4" cy="482.8" r=".9"/><path fill="#40C4FF" d="M544.5 459.6c-3.7 4.6-28.2 23-28.2 23l2.7 3.8s20.8-10.8 24.5-13.9c3.7-3.1 8.1-10.5 8.1-10.5l-7.1-2.4z"/><path fill="#40C4FF" d="M556 436.4c-3.8-.1-5.2-.1-7.9 2.1-4.6 3.7-8.9 9.5-8.4 13.4.5 3.9 5 9 3.2 27.2h20.9c-8-13.6 3.4-38.8-7.8-42.7z"/><path fill="#F4B400" d="M566.1 520.3c-1.9-8.6 5.6-25.5-2.3-41.3h-20.9c-.6 6.3.1 3.4-3.3 14.8-3.5 11.6-5.6 17.6-4.8 24.7.9 7.1 2.9 17.2 4.1 23.1 1.1 5.9 1.7 9.9-2.6 11.5-4.3 1.6-5.1 4.2-5.1 4.2h16.3s-1.1-18.1-1.7-27.8c-.6-9.7-2.6-7.3.6-15.2 3.2-7.9 5.4-12.9 5.4-12.9s1.5 15.7 4.4 22.8 10.2 27.5 4.6 28.8c-5.6 1.4-5.8 4.2-5.8 4.2h16.6s-1.2-7.4-1.4-17.1c0-9.7-3.2-15.9-4.1-19.8z"/><path d="M512.5 487.8l-.5-.9c.3-.2 7-3.7 12.8-2.4 6.1 1.4 11.1.4 13-2.6l.8.5c-2.2 3.4-7.5 4.5-14.1 3-5.4-1.2-12 2.3-12 2.4z"/><path fill="#FF5722" d="M546.4 509.3h-13.2v-30.5c0-3.7 3-6.6 6.6-6.6 3.7 0 6.6 3 6.6 6.6v30.5z"/><path d="M541.5 472.7h-11.3v-1h7.9l-8.2-5 .5-.8m-17.3 22.7l-14.4 9.9-2.9-4.9 15.8-7.6"/><path fill="#E1E1E1" d="M533.2 481.4h7.1v14.8h-7.1z"/><path fill="#FF7043" d="M555.2 422.3c-.2-3.7-5.3-9.7-11.9-4.5-3.6 2.8-2.9 14 2.6 15.9 3.1 1.1 2.2 4.7 2.2 4.7s.8 1.2 4 .8c2.3-.3 3.8-2.9 3.8-2.9s-.8.5-1.4-2.1c-1.4-6.2 1-7.6.7-11.9z"/><path fill="#F4B400" d="M536.3 553.1c-4.3 1.7-5.1 4.2-5.1 4.2h16.3s-.1-2.1-.3-5.2h-9.1c-.4.4-1 .8-1.8 1zm26-1c-.3.5-.8.9-1.3 1-5.6 1.4-5.8 4.2-5.8 4.2h16.6s-.3-2-.7-5.2h-8.8z"/><path d="M544 416.2c1.9-1.7 4.6-2.3 7.7-.8 3.5 1.7 4.9 5.1 4.5 8.8-.4 3.6-2.3 4.2-2.2 6 0 0-1.1-.7-2-1.8-.7-.8-.9-1.9-.5-2.9.2-.5.4-1.1.2-2-.3-1-1.1-1.1-1.8-1.1-.8.1-1.6-.3-2.1-.9-1-1.3-5.5-2.5-5.5-2.5s-.6-.7 1.7-2.8z"/><path fill="#40C4FF" d="M550.2 444.4c1.9 5.4 11.6 16.2 10.1 19.5-1 2.1-15.6 6.4-15.6 6.4l1.7 4.9s17.2-5 20.5-7.1.8-10.4-.7-14.1c-1.5-3.7-6.2-13.9-6.2-13.9l-9.8 4.3z"/><path fill="#FF7043" d="M544.7 470.3s-6.8 2.6-6.2 5.1c.6 2.5 7.9-.2 7.9-.2l-1.7-4.9z"/><circle cx="554.4" cy="412.6" r="5.1"/><path fill="#FF7043" d="M518.2 488.2c1.5-.7 2.1-2.1 1.4-3-1.9-2.2-3-3.7-5.7-2.8-2.8 1-3 5-2.2 7.2.3.9 2 1.1 3.4.3l3.1-1.7z"/><path d="M85.4 479.6s-19.3-1.5-24.8 0c-5.8 1.6-11.7 24.2-15.1 33.7-3.4 9.4-12.1 2.9-14.1 7.3l14.9 7.8c15-28.7 14.9-28.6 17-32.5 2.7-4.9 7.5-4.3 17.4.9 6 3.1 27.5 10.3 31.7-7.6l-27-9.6z"/><path d="M112.2 489.2s.6 27.9 2.2 31.2c2.1 4.3 35.3 15.9 35.3 15.9l-6 17.8s-3.2-2.8-2.8-9.2c.5-8-30.3-10.4-37.2-16.7-2.8-2.6-11.2-23.9-12.4-31.4-1.2-7.6 20.9-7.6 20.9-7.6z"/><path fill="#F4B400" d="M98.4 438.2c6.2.3 11.6.5 13.9 6.2 2.2 5.7 0 35.5 0 35.5l.1 17c-18.9-5.8-27-17.4-27-17.4l.7-15.3c-.1-7.8-1.8-26.7 12.3-26z"/><path fill="#F4B400" d="M96 438.3s-17.3.5-24.2.3c-6.8-.2-19.3-14.3-19.3-14.3l-4.5 4.8s13.3 15.5 19.1 17c5.8 1.5 19 2.7 18.9 12-.1 9.2 10-19.8 10-19.8zm17.3 19.7c0-4.4 7.3-6.7 12.5-4.4 6.2 2.8 21.9 17.8 21.9 17.8l4.3-4.9s-16.6-17.3-21.7-20.4c-5.1-3.1-23.2-7.5-26.8-7.5-2.7-.1 9.8 23.7 9.8 19.4z"/><path fill="#FF7043" d="M106 423.4c.3-4.5-.5-9.7-7-9.6-8.7.1-6.1 14.5-3.9 18.1 2.4 4 .8 6.5.8 6.5s1.1 1.6 4 1.8c2.1.2 4.1-1.7 4.1-1.7s-1.1-1.2-.6-4.8c.6-4.2 2.2-3.9 2.6-10.3z"/><path d="M100.6 412.7c4.1.7 6.8 4.6 6.1 8.7L92 418.8c.7-4.1 4.5-6.8 8.6-6.1z"/><path d="M107.1 422l-15.7-2.8.1-.5c.7-3.8 4-6.6 7.8-6.6.5 0 .9 0 1.4.1 2.1.4 3.9 1.5 5.1 3.3 1.2 1.7 1.7 3.9 1.3 6v.5zm-14.6-3.6l13.8 2.4c.2-1.7-.3-3.4-1.2-4.8-1.1-1.5-2.7-2.5-4.5-2.9-.4-.1-.8-.1-1.2-.1-3.3.1-6.2 2.3-6.9 5.4z"/><path d="M106.61 421.852l-27.39-4.77.155-.888 27.39 4.77zM94.8 508.9c-2.7-6.7-5.2-7.5-14.6-12.4-8.5-4.4.2-8.4 9.1-5 8.7 3.3 13.2 12 11.2 15.1-1.9 3.1-3 9-5.7 2.3z"/><path fill="#FF7043" d="M52.5 424.3s1.2-5.3-1.7-4.9c-2.1.3-2.9-1.3-3.7-1.1-2.3.8-3.3 4.5-3 6.1.5 2.3 4 4.6 4 4.6l4.4-4.7zm95.1 47s-.4 4.4 4.3 6c1.9.6 4.7-4.1 4.1-6.4-.6-2.3-4.1-4.5-4.1-4.5l-4.3 4.9z"/><path fill="#A1887F" d="M481.9 565.9c-12.2 3-26.8 2.7-39.7.6-2.3-.4-4.5-.8-6.2-1.6-2.1-1-3.2-2.5-5.3-3.4-2.5-1.2-6.2-1.5-9.7-1.7-2.8-.1-5.7-.1-7.9-.9-1.5-.6-2.5-1.4-4.3-1.7-.8-.1-1.6-.1-2.4-.2-.8-.1-1.5-.6-1.2-.9.3-.4 1.3-.5 2.1-.5 3.5 0 6.9-.1 10.4-.1 2.8 0 5.8 0 8.4.5 1.8.3 3.3.9 5.1 1.3 3.3.7 7 .5 10.5.4 12.1-.3 24.2.3 36 1.6 2.3.3 4.6.6 6.5 1.3 1.9.7 3.1 1.9 2.5 3-.5 1-2.7 1.8-4.8 2.3z"/><path fill="#40C4FF" d="M393.3 555.1V548c0-1.2 1-2.2 2.2-2.2H409v11.4h-13.5c-1.3.1-2.2-.9-2.2-2.1z"/><path fill="#40C4FF" d="M401.8 549.2c-1.8 0-3.4-1.5-3.4-3.4s1.5-3.4 3.4-3.4c1.8 0 3.4 1.5 3.4 3.4s-1.5 3.4-3.4 3.4zm0-5.7c-1.3 0-2.4 1.1-2.4 2.4 0 1.3 1.1 2.4 2.4 2.4 1.3 0 2.4-1.1 2.4-2.4 0-1.4-1-2.4-2.4-2.4z"/><path d="M194.6 515l-1.7 6.6h-24.1v.9h39.6v20.3l-29.9 6.1v3.2c-1.2.2-2.1 1.3-2.1 2.6 0 1.4 1.2 2.6 2.6 2.6 1.4 0 2.6-1.2 2.6-2.6 0-1.3-.9-2.3-2.1-2.6v-2.4l29-5.9v8.3c-1.2.2-2.1 1.3-2.1 2.6 0 1.4 1.2 2.6 2.6 2.6s2.6-1.2 2.6-2.6c0-1.3-.9-2.3-2.1-2.6v-8.3l29 5.9v2.4c-1.2.2-2.1 1.3-2.1 2.6 0 1.4 1.2 2.6 2.6 2.6s2.6-1.2 2.6-2.6c0-1.3-.9-2.3-2.1-2.6v-3.2l-29.9-6.1v-20.3h27.7v-.5l1.9-7.1h-44.4c-.1.1-.2.1-.2.1zm9.9-37.7l-1.7 6.6H247l1.7-6.6h-44.2zm-7.9 30.2l-1.7 6.6h44.2l1.7-6.6h-44.2zm2-7.6l-1.7 6.6h44.2l1.7-6.6h-44.2c0 .1 0 0 0 0zm3.9-15.1l-1.7 6.6H245l1.7-6.6h-44.1c0 .1 0 0-.1 0zm46.5-8.4l1.9-7.1h-44.2l-1.9 7.1H249zm-48.5 16l-1.7 6.6H243l1.7-6.6h-44.2z"/></svg>