<?xml version="1.0" encoding="utf-8"?>
<!-- Generator: Adobe Illustrator 18.0.0, SVG Export Plug-In . SVG Version: 6.00 Build 0)  -->
<!DOCTYPE svg PUBLIC "-//W3C//DTD SVG 1.1//EN" "http://www.w3.org/Graphics/SVG/1.1/DTD/svg11.dtd">
<svg version="1.1" id="Layer_1" xmlns="http://www.w3.org/2000/svg" xmlns:xlink="http://www.w3.org/1999/xlink" x="0px" y="0px"
	 viewBox="216.5 284.5 192 192" enable-background="new 216.5 284.5 192 192" xml:space="preserve">
<path fill="#78909C" d="M216.5,324.9h192v151.7h-192V324.9z"/>
<ellipse fill="#FFFFFF" cx="330.5" cy="314.2" rx="38.7" ry="28.5"/>
<path fill="#FFFFFF" d="M339.2,337.5l18.7,13.2l-9.8-20.7 M321.8,337.5l-18.7,13.2l9.8-20.7"/>
<ellipse fill="#F4B400" cx="330.3" cy="314.2" rx="7.5" ry="7.5"/>
<path fill="#FF5722" d="M344.6,307.4h13.8v13.8h-13.8V307.4z"/>
<path d="M318.5,321.1h-15.9l7.9-13.8L318.5,321.1z"/>
<path fill="#FFFFFF" d="M322.9,390.5h-3.6c-0.9,0-1.6-0.7-1.6-1.6v-7h6.9v7C324.5,389.8,323.8,390.5,322.9,390.5L322.9,390.5z"/>
<path fill="#FFFFFF" d="M317.6,388.8c-1.5,0-2.7-1.2-2.7-2.7s1.2-2.7,2.7-2.7s2.7,1.2,2.7,2.7C320.3,387.6,319.1,388.8,317.6,388.8z
	 M317.6,384.5c-0.9,0-1.6,0.7-1.6,1.6c0,0.9,0.7,1.6,1.6,1.6c0.9,0,1.6-0.7,1.6-1.6C319.3,385.2,318.5,384.5,317.6,384.5z"/>
<path fill="#FF5722" d="M291.9,374.3c2.6,6,7.6,12.8,10.2,13.9c1.7,0.7,9.6-1.7,9.6-1.7l1.6,3.8c0,0-9.7,3.4-12.8,3.9
	c-3.1,0.5-5.3-3.1-7.3-5.5s-5.9-7.4-5.9-7.4L291.9,374.3z"/>
<path fill="#F4B400" d="M292.9,406.1c0,0,2,13.8,1.2,26.4c-0.5,8-2.8,21.7-1.6,23.5s4.6,1.7,4.6,4h-10.2c0,0-0.6-8.7-0.5-20.9
	c0-3.5-0.6-13.3-1.3-17c-0.3-1.4-2.3-1.4-2.6,0c-0.7,3.8-1.4,13.5-1.5,15c-0.1,2.9-3.9,16.6-2.3,18.9c1.7,2.5,4.1,1.8,4.1,3.9h-9.6
	c0,0,0.1-13.1,0.5-20.8c0.6-10.7-1.6-17.2-1.1-33L292.9,406.1L292.9,406.1z"/>
<path fill="#FF5722" d="M282.5,369.8c4.7,0.2,8.3,0.4,9.5,4.9c3.5,12.7,0.9,31.4,0.9,31.4h-20.3c0,0-1.5-8.5-0.5-18.8
	C273.1,377.1,271.9,369.3,282.5,369.8L282.5,369.8z"/>
<path fill="#FFFFFF" d="M279.3,370l5.1,26l1.2-26.1"/>
<path fill="#FF5722" d="M279.3,370c0,0-7.9,0-16.8,10.1c-3.4,3.9-17.9-4.6-17.9-4.6l-1.3,4.7c0,0,15.1,8.9,18.9,6.6
	c3.8-2.3,10.4-8.7,10.4-1.7C272.6,392.2,279.3,370,279.3,370z"/>
<path fill="#F4B400" d="M244.7,375.6c0,0-5.3-0.5-6.4,0.9c-1.1,1.4,2.2,2.8,5,3.8L244.7,375.6L244.7,375.6z M315.3,388.8
	c0.2,1.4-1,2.1-2.1,2c-1.6-0.2-2.2-0.5-2.6-1.4c-1.1-3.1,1.3-3.8,3.6-4.5c1-0.3,2.3-0.4,2.3,0.9S315.2,387.4,315.3,388.8
	L315.3,388.8z M277.6,359c-0.3-3.7,0.4-8.1,5.8-8c7.3,0.1,5.1,11.4,3.2,14.4c-2,3.3-1,4.6-1,4.6s-0.6,1.4-3,1.6
	c-1.7,0.2-3.3-1.5-3.3-1.5s0.8-0.9,0.4-3.9C279.3,362.7,278,364.3,277.6,359L277.6,359z"/>
<path fill="#FF5722" d="M279.4,364.5l0.8-2.8c0,0-1.2-1.1-0.7-2.9s2,0.1,2,0.1l0.6-4.1c2.3,0.3,4.4-0.2,5.8-0.8
	c1.4-0.6,6-2.7,6.2-8.3c0,0-2.4,1.8-6.3,0c-2.3-1-3.9-1.3-6.8-0.7c-4.8,1-5.8,6.3-5.6,9.7C275.6,358.2,278.5,363.2,279.4,364.5
	L279.4,364.5z"/>
<path d="M273.2,460h9.6c0-2-2.4-1.4-4.1-3.9h-5.4C273.2,458.4,273.2,460,273.2,460z M292.6,456.1h-5.9c0.1,2.5,0.2,3.9,0.2,3.9h10.2
	C297.1,457.8,293.8,457.8,292.6,456.1z"/>
<path opacity="0.25" fill="#FFFFFF" enable-background="new    " d="M326.6,366.4c-2,0.4-4.1,1-5.6,2.4c-0.2,0.2-0.4,0.3-0.4,0.6
	c-0.2,0.5,0,1.1,0.4,1.4c0.4,0.4,0.9,0.6,1.3,0.9c0.4,0.2,0.8,0.5,1.1,0.9c0.5,0.5,1,1.2,0.8,1.9c-0.1,0.5-0.5,0.9-0.9,1.1
	c-0.5,0.3-1,0.5-1.5,0.7c-0.5,0.2-1.1,0.5-1.5,0.9c-0.4,0.4-0.7,1-0.6,1.5c0.1,0.4,0.4,0.8,0.7,1.1c0.3,0.3,0.8,0.5,1.1,0.7
	c-0.4-0.2-0.8-0.5-0.9-0.9c-0.2-0.4-0.2-0.9,0.1-1.3c0.3-0.5,0.8-0.7,1.2-0.9l1.4-0.6c0.8-0.4,1.6-0.8,2.3-1.3
	c0.5-0.4,0.9-0.8,1.2-1.3c0.4-0.8,0.3-1.7-0.2-2.4c-0.8-1-2.1-1.2-3.2-1.8c-0.3-0.1-0.6-0.4-0.7-0.7c0-0.2,0.1-0.5,0.2-0.7
	c0.3-0.5,0.8-0.8,1.3-1C325.4,366.9,325.6,366.8,326.6,366.4"/>
<path fill="#F4B400" d="M348,384.1c0,0,6.4,7.2,8.9,8.4c2.4,1.2,8.5-5.9,8.5-5.9l-3.6-5.9c0,0-2.7,5.2-4.1,5.7
	c-1.4,0.6-8.1-5.6-8.1-5.6L348,384.1z"/>
<path fill="#F4B400" d="M373.4,372.3c-2.9-0.1-3.9-0.1-5.9,1.6c-1.4,1.1-2.8,2.5-3.9,4c-0.7,0.9-1.3,1.9-1.8,2.8
	c-0.6,1.2-0.8,2.3-0.7,3.3c0.4,2.9,3.8,6.8,2.4,20.5h15.8C373.3,394.3,381.9,375.2,373.4,372.3L373.4,372.3z"/>
<path d="M381.1,437c-1.4-6.5,4.2-20.7-1.7-32.5h-15.8c-0.5,4.7,0.1,1.1-2.5,9.8c-2.6,8.8-4.2,13.2-3.6,18.6
	c0.7,5.4,2.2,10.9,3.1,15.3s1.3,7.4-2,8.7s-3.8,3.1-3.8,3.1h12.3c0,0-0.8-9.4-1.2-16.7c-0.4-7.3-2-7.6,0.5-13.6
	c2.4-6,4.1-9.7,4.1-9.7s1.1,11.9,3.3,17.2c2.2,5.3,7.7,18.6,3.5,19.6c-4.2,1-4.4,3.2-4.4,3.2h11.8c0,0-1-4.1-1.1-11.5
	C383.5,441,381.8,439.9,381.1,437L381.1,437z"/>
<path fill="#FF7043" d="M374.4,361.6c0.3-2.8-2.9-7.8-8.3-4.6c-3,1.7-3.8,10.1,0.1,12.1c2.2,1.1,1.3,4.8,1.3,4.8s0.7,0.9,3.1,0.6
	c1.8-0.2,2.9-2.2,2.9-2.2s-0.8,0.1-0.9-1.9C372.1,365.6,374.1,364.8,374.4,361.6z"/>
<path d="M366.7,355.7c1.6-1.1,3.7-1.2,5.9,0.3c2.4,1.6,3.1,4.4,2.4,7c-0.7,2.7-2.2,2.9-2.3,4.3c0,0-0.8-0.7-1.3-1.5
	c-0.4-0.7-0.5-1.5,0-2.2c0.2-0.3,0.4-0.8,0.4-1.4c-0.1-0.8-0.7-0.9-1.2-1c-0.6,0-1.2-0.4-1.5-0.9c-0.6-1-3.8-2.5-3.8-2.5
	S364.8,357,366.7,355.7L366.7,355.7z"/>
<path fill="#F4B400" d="M369.1,378.3c1.4,4.1,8,13.9,6.8,16.3c-0.8,1.6-9.8,3.5-9.8,3.5l-0.2,3.9c0,0,13.3-1.4,15.8-3
	c2.5-1.6-0.1-10.9-1.2-13.8c-1.1-2.8-4-10.2-4-10.2L369.1,378.3z"/>
<path fill="#FF7043" d="M366,398.4c0,0-5.4,0.8-5.4,2.7c0,1.9,5.8,1.2,5.8,1.2L366,398.4z"/>
<ellipse cx="374.8" cy="354.2" rx="3.8" ry="3.8"/>
<path fill="#FFFFFF" d="M346.3,384.7h3.6c0.9,0,1.6-0.7,1.6-1.6v-7h-6.9v7C344.6,384,345.4,384.7,346.3,384.7z"/>
<path fill="#FFFFFF" d="M351.5,383.1c-1.5,0-2.7-1.2-2.7-2.7s1.2-2.7,2.7-2.7s2.7,1.2,2.7,2.7S353,383.1,351.5,383.1z M351.5,378.8
	c-0.9,0-1.6,0.7-1.6,1.6c0,0.9,0.7,1.6,1.6,1.6c0.9,0,1.6-0.7,1.6-1.6C353.1,379.5,352.4,378.8,351.5,378.8z"/>
<path fill="#FF7043" d="M348.2,381.3c-0.2,2-1.6,2.4-2.7,2c-1.5-0.5-2.1-0.9-2.2-2.8c-0.2-3.3,1.1-2.5,3.5-2.7
	C347.8,377.8,348.4,379.3,348.2,381.3L348.2,381.3z"/>
<path opacity="0.25" fill="#FFFFFF" enable-background="new    " d="M346.2,361.1c1.5,0.2,3,0.8,4.3,1.7c0.5,0.3,1,0.8,1.2,1.3
	c0.3,0.7,0,1.5-0.5,2.1c-0.5,0.6-1.2,0.9-1.8,1.3c-0.9,0.5-1.7,0.9-2.5,1.4c-0.3,0.2-0.7,0.4-0.9,0.7c-0.5,0.6-0.5,1.4-0.1,2.1
	c0.3,0.7,0.9,1.2,1.5,1.6c0.8,0.6,1.6,1,2.5,1.5c-1.3-0.3-3-0.8-4.1-1.6c-1.1-0.8-1.7-1.8-1.6-3.1c0.2-1.7,1.8-2.9,3.3-3.7
	c0.7-0.4,1.5-0.9,1.6-1.7c0-0.4-0.1-0.8-0.3-1.1C348.1,362.5,347.2,361.6,346.2,361.1L346.2,361.1z"/>
</svg>
