<?xml version="1.0" encoding="UTF-8" standalone="no"?>
<svg width="2880px" height="1442px" viewBox="0 0 2880 1442" version="1.1" xmlns="http://www.w3.org/2000/svg" xmlns:xlink="http://www.w3.org/1999/xlink" xmlns:sketch="http://www.bohemiancoding.com/sketch/ns">
    <!-- Generator: Sketch 3.3.1 (12002) - http://www.bohemiancoding.com/sketch -->
    <title>Article_Welcome_Header_B (1)</title>
    <desc>Created with Sketch.</desc>
    <defs>
        <circle id="path-1" cx="396" cy="396" r="396"></circle>
        <circle id="path-3" cx="396" cy="396" r="396"></circle>
        <circle id="path-5" cx="396" cy="396" r="396"></circle>
        <circle id="path-7" cx="396" cy="396" r="396"></circle>
        <circle id="path-9" cx="396" cy="396" r="396"></circle>
        <circle id="path-11" cx="396" cy="396" r="396"></circle>
        <circle id="path-13" cx="396" cy="396" r="396"></circle>
        <circle id="path-15" cx="396" cy="396" r="396"></circle>
        <circle id="path-17" cx="396" cy="396" r="396"></circle>
    </defs>
    <g id="Page-1" stroke="none" stroke-width="1" fill="none" fill-rule="evenodd" sketch:type="MSPage">
        <g id="Article_Welcome_Header_B-(1)" sketch:type="MSLayerGroup" transform="translate(0.000000, 1.000000)">
            <g id="Layer_1"></g>
            <g id="Background" fill="#3367D6" sketch:type="MSShapeGroup">
                <g id="Background_1_">
                    <rect id="Rectangle-path" x="0" y="0" width="2880" height="1440"></rect>
                </g>
            </g>
            <g id="Artwork">
                <g id="Group" transform="translate(1044.000000, 324.000000)">
                    <g id="Clipped">
                        <g>
                            <mask id="mask-2" sketch:name="SVGID_1_" fill="white">
                                <use xlink:href="#path-1"></use>
                            </mask>
                            <g id="SVGID_1_"></g>
                            <path d="M792,0 L792,396 L396,396 L792,0 Z" id="Shape" opacity="0.76" fill="#5991FC" sketch:type="MSShapeGroup" mask="url(#mask-2)"></path>
                        </g>
                        <g>
                            <mask id="mask-4" sketch:name="SVGID_1_" fill="white">
                                <use xlink:href="#path-3"></use>
                            </mask>
                            <g id="SVGID_1_"></g>
                            <path d="M396,0 L792,0 L396,396 L396,0 Z" id="Shape" opacity="0.68" fill="#5991FC" sketch:type="MSShapeGroup" mask="url(#mask-4)"></path>
                        </g>
                        <g>
                            <mask id="mask-6" sketch:name="SVGID_1_" fill="white">
                                <use xlink:href="#path-5"></use>
                            </mask>
                            <g id="SVGID_1_"></g>
                            <path d="M396,396 L0,0 L396,0 L396,396 Z" id="Shape" opacity="0.6" fill="#5991FC" sketch:type="MSShapeGroup" mask="url(#mask-6)"></path>
                        </g>
                        <g>
                            <mask id="mask-8" sketch:name="SVGID_1_" fill="white">
                                <use xlink:href="#path-7"></use>
                            </mask>
                            <g id="SVGID_1_"></g>
                            <path d="M396,396 L0,396 L0,0 L396,396 Z" id="Shape" opacity="0.52" fill="#5991FC" sketch:type="MSShapeGroup" mask="url(#mask-8)"></path>
                        </g>
                        <g>
                            <mask id="mask-10" sketch:name="SVGID_1_" fill="white">
                                <use xlink:href="#path-9"></use>
                            </mask>
                            <g id="SVGID_1_"></g>
                            <path d="M792,792 L396,396 L792,396 L792,792 Z" id="Shape" opacity="0.2" fill="#5991FC" sketch:type="MSShapeGroup" mask="url(#mask-10)"></path>
                        </g>
                        <g>
                            <mask id="mask-12" sketch:name="SVGID_1_" fill="white">
                                <use xlink:href="#path-11"></use>
                            </mask>
                            <g id="SVGID_1_"></g>
                            <path d="M0,792 L0,396 L396,396 L0,792 Z" id="Shape" opacity="0.44" fill="#5991FC" sketch:type="MSShapeGroup" mask="url(#mask-12)"></path>
                        </g>
                        <g>
                            <mask id="mask-14" sketch:name="SVGID_1_" fill="white">
                                <use xlink:href="#path-13"></use>
                            </mask>
                            <g id="SVGID_1_"></g>
                            <path d="M792,792 L396,792 L396,396 L792,792 Z" id="Shape" opacity="0.28" fill="#5991FC" sketch:type="MSShapeGroup" mask="url(#mask-14)"></path>
                        </g>
                        <g>
                            <mask id="mask-16" sketch:name="SVGID_1_" fill="white">
                                <use xlink:href="#path-15"></use>
                            </mask>
                            <g id="SVGID_1_"></g>
                            <path d="M396,792 L0,792 L396,396 L396,792 Z" id="Shape" opacity="0.36" fill="#5991FC" sketch:type="MSShapeGroup" mask="url(#mask-16)"></path>
                        </g>
                        <g>
                            <mask id="mask-18" sketch:name="SVGID_1_" fill="white">
                                <use xlink:href="#path-17"></use>
                            </mask>
                            <g id="SVGID_1_"></g>
                            <path d="M385.3,373.7 C382.8,380.8 380.3,388.6 380.3,397.9 C380.3,418.6 392.8,429.5 403,440.9 C372.9,442.9 316.8,448.6 275.4,473.9 C235.9,497.4 223.6,531.4 223.6,555.4 C223.6,604.9 270.8,650.5 367.6,650.5 C482.5,650.5 543.7,587.5 543.7,524.8 C543.7,478.5 516.5,455.9 487.2,431.2 L463.1,412.6 C455.8,406.6 443,398.6 443,383.9 C443,369.1 453.2,357.8 461.8,351.2 C490.5,328.9 518,305.1 518,255.8 C518,209.1 490,184.5 473.4,170.1 L511.4,170.1 L539.5,142.1 L402.3,142.1 C306.4,142.1 257.4,201.8 257.4,268.1 C257.4,319.3 296.9,374 367.1,374 C372.8,373.7 385.3,373.7 385.3,373.7 L385.3,373.7 Z M398.2,355 C342.6,355 312.3,287.4 312.3,235.9 C312.3,187 341.9,164.2 372.9,164.2 C432.5,164.2 463.3,241.1 463.3,287.2 C463.2,344.1 416.6,355 398.2,355 L398.2,355 Z M400.4,622 C329,622 281.3,587.8 281.3,540.3 C281.3,493 325.5,476.9 340.2,471.6 C368.2,462.2 404.3,461 410.4,461 C417,461 420.3,461 425.6,461.5 C476.4,497.8 497.8,515.7 497.8,549.8 C497.9,587.9 464.4,622 400.4,622 L400.4,622 Z" id="Shape" fill="#5991FC" sketch:type="MSShapeGroup" mask="url(#mask-18)"></path>
                        </g>
                    </g>
                    <path d="M385.3,373.7 C382.8,380.8 380.3,388.6 380.3,397.9 C380.3,418.6 392.8,429.5 403,440.9 C372.9,442.9 316.8,448.6 275.4,473.9 C235.9,497.4 223.6,531.4 223.6,555.4 C223.6,604.9 270.8,650.5 367.6,650.5 C482.5,650.5 543.7,587.5 543.7,524.8 C543.7,478.5 516.5,455.9 487.2,431.2 L463.1,412.6 C455.8,406.6 443,398.6 443,383.9 C443,369.1 453.2,357.8 461.8,351.2 C490.5,328.9 518,305.1 518,255.8 C518,209.1 490,184.5 473.4,170.1 L511.4,170.1 L539.5,142.1 L402.3,142.1 C306.4,142.1 257.4,201.8 257.4,268.1 C257.4,319.3 296.9,374 367.1,374 C372.8,373.7 385.3,373.7 385.3,373.7 L385.3,373.7 Z M398.2,355 C342.6,355 312.3,287.4 312.3,235.9 C312.3,187 341.9,164.2 372.9,164.2 C432.5,164.2 463.3,241.1 463.3,287.2 C463.2,344.1 416.6,355 398.2,355 L398.2,355 Z M400.4,622 C329,622 281.3,587.8 281.3,540.3 C281.3,493 325.5,476.9 340.2,471.6 C368.2,462.2 404.3,461 410.4,461 C417,461 420.3,461 425.6,461.5 C476.4,497.8 497.8,515.7 497.8,549.8 C497.9,587.9 464.4,622 400.4,622 L400.4,622 Z" id="Shape" opacity="0.1" fill="#FFFFFF" sketch:type="MSShapeGroup"></path>
                </g>
                <g id="Group" stroke="#FFFFFF" stroke-width="1.5" sketch:type="MSShapeGroup">
                    <path d="M0,466 L2880,466" id="Shape" opacity="0.2"></path>
                    <path d="M0,975 L2880,975" id="Shape" opacity="0.2"></path>
                    <path d="M720,0 L2160,1440" id="Shape" opacity="0.2"></path>
                    <path d="M2160,0 L720,1440" id="Shape" opacity="0.2"></path>
                    <path d="M1566,0 L1566,1440" id="Shape" opacity="0.2"></path>
                    <path d="M1314,0 L1314,1440" id="Shape" opacity="0.2"></path>
                    <path d="M2880,846 L0,846" id="Shape" opacity="0.2"></path>
                    <path d="M2880,594 L0,594" id="Shape" opacity="0.2"></path>
                    <circle id="Oval" opacity="0.2" cx="1440" cy="720" r="180"></circle>
                    <path d="M0,720 L2880,720" id="Shape" opacity="0.4"></path>
                    <path d="M1440,0 L1440,1440" id="Shape" opacity="0.4"></path>
                    <circle id="Oval" opacity="0.4" cx="1440" cy="720" r="396"></circle>
                    <path d="M1728,379 C1757.2,379 1781,402.8 1781,432 L1781,1008 C1781,1037.2 1757.2,1061 1728,1061 L1152,1061 C1122.8,1061 1099,1037.2 1099,1008 L1099,432 C1099,402.8 1122.8,379 1152,379 L1728,379 L1728,379 Z" id="Path" opacity="0.4"></path>
                    <path d="M1674,324 L1206,324 C1176.3,324 1152,348.3 1152,378 L1152,1062 C1152,1091.7 1176.3,1116 1206,1116 L1674,1116 C1703.7,1116 1728,1091.7 1728,1062 L1728,378 C1728,348.3 1703.7,324 1674,324 L1674,324 Z" id="Shape" opacity="0.4"></path>
                    <path d="M1782,432 L1098,432 C1068.3,432 1044,456.3 1044,486 L1044,954 C1044,983.7 1068.3,1008 1098,1008 L1782,1008 C1811.7,1008 1836,983.7 1836,954 L1836,486 C1836,456.3 1811.7,432 1782,432 L1782,432 Z" id="Shape" opacity="0.4"></path>
                </g>
            </g>
        </g>
    </g>
</svg>